<svg xmlns="http://www.w3.org/2000/svg" width="240" height="144" viewBox="0 0 240 144" fill="none">
  <defs>
    <g id="plus" stroke="#5f6673" stroke-width="2" stroke-linecap="round">
      <path d="M12 7v10M7 12h10"/>
    </g>
    <g id="minus" stroke="#5f6673" stroke-width="2" stroke-linecap="round">
      <path d="M7 12h10"/>
    </g>
    <g id="copy" stroke="#5f6673" stroke-width="1.7" stroke-linejoin="round">
      <rect x="7" y="7" width="8" height="8" rx="1.5"/>
      <path d="M10 5h7a2 2 0 0 1 2 2v7"/>
    </g>
    <g id="object" stroke="#5f6673" stroke-width="1.7" stroke-linecap="round">
      <path d="M9 7c-2 0-3 2-3 5s1 5 3 5M15 7c2 0 3 2 3 5s-1 5-3 5"/>
    </g>
    <g id="array" stroke="#5f6673" stroke-width="1.7" stroke-linecap="round">
      <path d="M9 7H7v10h2M15 7h2v10h-2"/>
    </g>
    <g id="string" stroke="#5f6673" stroke-width="1.7" stroke-linecap="round">
      <path d="M7 15c3-6 7-6 10 0"/>
      <path d="M8 9h8"/>
    </g>
    <g id="sort" stroke="#5f6673" stroke-width="1.7" stroke-linecap="round" stroke-linejoin="round">
      <path d="M8 6v12M8 18l-3-3M8 18l3-3M16 18V6M16 6l-3 3M16 6l3 3"/>
    </g>
    <g id="arrow-down" stroke="#5f6673" stroke-width="2" stroke-linecap="round" stroke-linejoin="round">
      <path d="M7 9l5 5 5-5"/>
    </g>
    <g id="search" stroke="#5f6673" stroke-width="1.8" stroke-linecap="round">
      <circle cx="11" cy="11" r="4"/>
      <path d="M14 14l4 4"/>
    </g>
    <g id="undo" stroke="#5f6673" stroke-width="1.8" stroke-linecap="round" stroke-linejoin="round">
      <path d="M8 9H5l3-3"/>
      <path d="M6 9h8a4 4 0 1 1 0 8h-2"/>
    </g>
    <g id="redo" stroke="#5f6673" stroke-width="1.8" stroke-linecap="round" stroke-linejoin="round">
      <path d="M16 9h3l-3-3"/>
      <path d="M18 9h-8a4 4 0 1 0 0 8h2"/>
    </g>
    <g id="warning" stroke="#5f6673" stroke-width="1.7" stroke-linecap="round" stroke-linejoin="round">
      <path d="M12 5l8 14H4L12 5z"/>
      <path d="M12 10v4M12 17h.01"/>
    </g>
  </defs>
  <g opacity=".95">
    <use href="#plus" x="0" y="0"/>
    <use href="#minus" x="24" y="0"/>
    <use href="#copy" x="48" y="0"/>
    <use href="#object" x="72" y="0"/>
    <use href="#array" x="96" y="0"/>
    <use href="#string" x="120" y="0"/>
    <use href="#sort" x="168" y="0"/>
    <use href="#sort" x="192" y="0"/>
    <use href="#arrow-down" x="0" y="48"/>
    <use href="#arrow-down" x="48" y="48"/>
    <use href="#arrow-down" x="72" y="48"/>
    <use href="#search" x="96" y="48"/>
    <use href="#search" x="120" y="48"/>
    <use href="#search" x="144" y="48"/>
    <use href="#warning" x="168" y="48"/>
    <use href="#undo" x="24" y="96"/>
    <use href="#redo" x="48" y="96"/>
    <use href="#array" x="72" y="96"/>
    <use href="#object" x="96" y="96"/>
    <use href="#sort" x="120" y="96"/>
    <use href="#sort" x="144" y="96"/>
  </g>
</svg>
